<svg fill="#ff278f" viewBox="-51.2 -51.2 614.40 614.40" id="_x30_1" version="1.1" xml:space="preserve" xmlns="http://www.w3.org/2000/svg" xmlns:xlink="http://www.w3.org/1999/xlink" stroke="#ff278f" stroke-width="0.00512"><g id="SVGRepo_bgCarrier" stroke-width="0"></g><g id="SVGRepo_tracerCarrier" stroke-linecap="round" stroke-linejoin="round" stroke="#CCCCCC" stroke-width="3.072"></g><g id="SVGRepo_iconCarrier"><path d="M256,0C114.615,0,0,114.615,0,256s114.615,256,256,256s256-114.615,256-256S397.385,0,256,0z M268.792,387.126 c-8.09,3.916-17.495,3.916-25.584,0c-113.47-54.927-183.189-167.497-118.272-240c28.619-31.964,77.901-33.964,107.943-3.376 C248.293,159.443,256,180.306,256,201.169c0-20.863,7.707-41.726,23.121-57.42c30.042-30.587,79.324-28.587,107.943,3.377 C451.981,219.629,382.262,332.198,268.792,387.126z"></path></g></svg>