<svg fill="rgb(167 167 167)" height="210px" width="210px" version="1.1" id="Layer_1" xmlns="http://www.w3.org/2000/svg" xmlns:xlink="http://www.w3.org/1999/xlink" viewBox="0 0 512 512" xml:space="preserve" stroke="rgb(167 167 167)" stroke-width="0.00512"><g id="SVGRepo_bgCarrier" stroke-width="0"></g><g id="SVGRepo_tracerCarrier" stroke-linecap="round" stroke-linejoin="round"></g><g id="SVGRepo_iconCarrier"> <g> <g> <path d="M376.879,0H176.771c-2.19,0-4.335,0.192-6.427,0.543c-0.394-0.024-0.785-0.06-1.185-0.06 c-71.731,0-130.087,58.356-130.087,130.087v82.366c0,10.61,8.602,19.211,19.211,19.211H138v200.049 C138,476.199,173.8,512,217.804,512h175.319c44.004,0,79.805-35.799,79.805-79.803V96.047C472.926,43.087,429.839,0,376.879,0z M138,193.724H77.495V130.57c0-39.608,25.255-73.423,60.505-86.205V193.724z M393.121,473.578H217.804 c-22.817,0-41.381-18.563-41.381-41.381V38.772c0-0.147,0.202-0.35,0.348-0.35h200.107c31.775,0,57.625,25.851,57.625,57.625 v336.149h0.001C434.504,455.013,415.941,473.578,393.121,473.578z"></path> </g> </g> <g> <g> <path d="M371.204,334.787h-133.18c-10.61,0-19.211,8.602-19.211,19.211s8.602,19.211,19.211,19.211h133.18 c10.61,0,19.211-8.602,19.211-19.211S381.814,334.787,371.204,334.787z"></path> </g> </g> <g> <g> <path d="M371.204,395.616h-133.18c-10.61,0-19.211,8.602-19.211,19.211s8.602,19.211,19.211,19.211h133.18 c10.61,0,19.211-8.602,19.211-19.211S381.814,395.616,371.204,395.616z"></path> </g> </g> <g> <g> <path d="M371.144,272.965h-133.18c-10.61,0-19.211,8.602-19.211,19.211c0,10.61,8.602,19.211,19.211,19.211h133.18 c10.61,0,19.211-8.602,19.211-19.211C390.355,281.566,381.754,272.965,371.144,272.965z"></path> </g> </g> <g> <g> <path d="M391.455,86.079c-21.875-21.875-57.468-21.879-79.344-0.003l-4.606,4.606l-4.604-4.604 c-21.716-21.716-56.948-21.876-78.862-0.479c-9.849,8.805-15.624,22.997-15.875,39.087c-0.257,16.533,5.441,31.442,15.649,40.997 l70.107,70.107c3.751,3.753,8.668,5.628,13.584,5.628s9.834-1.876,13.584-5.628l70.367-70.366 C413.33,143.549,413.33,107.954,391.455,86.079z M364.291,138.254l-56.783,56.782l-56.782-56.782l-0.625-0.598 c-1.805-1.65-3.592-6.402-3.517-12.295c0.083-6.525,2.28-10.436,3.07-11.122l1.072-0.994c6.897-6.894,18.114-6.894,25.009,0 l18.175,18.175c0.004,0.004,0.008,0.009,0.012,0.013c0.622,0.621,1.286,1.172,1.966,1.691c7.531,5.742,18.324,5.191,25.205-1.689 c0.004-0.004,0.008-0.009,0.012-0.013l18.176-18.176c6.897-6.894,18.114-6.894,25.009,0 C371.184,120.142,371.184,131.359,364.291,138.254z"></path> </g> </g> </g></svg>